/* XPM */
static char *result[] = {
/* columns rows colors chars-per-pixel */
"42 101 2 1 ",
"  c white",
". c None",
/* pixels */
"........                          ........",
"........                          ........",
"........                          ........",
"........                          ........",
"........                          ........",
"........                          ........",
"........                          ........",
"........                          ........",
"        ........          ........        ",
"        ........          ........        ",
"        ........          ........        ",
"        ........          ........        ",
"        ........          ........        ",
"        ........          ........        ",
"        ........          ........        ",
"        ........          ........        ",
"                ..........                ",
"                ..........                ",
"                ..........                ",
"                ..........                ",
"                ..........                ",
"                ..........                ",
"                ..........                ",
"                ..........                ",
"                ..........                ",
"                ..........                ",
"                ..........                ",
"                ..........                ",
"                ..........                ",
"                ..........                ",
"                ..........                ",
"                ..........                ",
"                ..........                ",
"                ..........                ",
"                ..........                ",
"                ..........                ",
"                ..........                ",
"                ..........                ",
"        ..........................        ",
"        ..........................        ",
"        ..........................        ",
"        ..........................        ",
"        ..........................        ",
"        ..........................        ",
"        ..........................        ",
"        ..........................        ",
"..........................................",
"..........................................",
"..........................................",
"..........................................",
"..........................................",
"..........................................",
"..........................................",
"..........................................",
"        ..........................        ",
"        ..........................        ",
"        ..........................        ",
"        ..........................        ",
"        ..........................        ",
"        ..........................        ",
"        ..........................        ",
"        ..........................        ",
"        ..........................        ",
"                ..........                ",
"                ..........                ",
"                ..........                ",
"                ..........                ",
"                ..........                ",
"                ..........                ",
"                ..........                ",
"                ..........                ",
"                ..........                ",
"                ..........                ",
"                ..........                ",
"                ..........                ",
"                ..........                ",
"                ..........                ",
"                ..........                ",
"                ..........                ",
"                ..........                ",
"                ..........                ",
"                ..........                ",
"                ..........                ",
"                ..........                ",
"                ..........                ",
"        ........          ........        ",
"        ........          ........        ",
"        ........          ........        ",
"        ........          ........        ",
"        ........          ........        ",
"        ........          ........        ",
"        ........          ........        ",
"        ........          ........        ",
"........                          ........",
"........                          ........",
"........                          ........",
"........                          ........",
"........                          ........",
"........                          ........",
"........                          ........",
"........                          ........"
};
