/* XPM */
static char *_3287bfc005845aaf865ba8470671b16wVX6U7CfxoSE0Rjk[] = {
/* columns rows colors chars-per-pixel */
"32 32 207 2 ",
"   c #2E1B15",
".  c #4E161C",
"X  c #521C1C",
"o  c #482525",
"O  c #57282C",
"+  c #5E3737",
"@  c #66292B",
"#  c #622630",
"$  c #67363C",
"%  c #59403A",
"&  c #67423C",
"*  c #683641",
"=  c #724144",
"-  c #6E5358",
";  c #725857",
":  c #6B4544",
">  c #6A665D",
",  c #776B66",
"<  c #7B6B68",
"1  c #BA1418",
"2  c #A31B2F",
"3  c #AB2134",
"4  c #A92C3C",
"5  c #B72536",
"6  c #B82932",
"7  c #B73B3A",
"8  c #DE0D15",
"9  c #D7111D",
"0  c #C61A28",
"q  c #C81E37",
"w  c #D71C39",
"e  c #DB1F30",
"r  c #D41B2D",
"t  c #EE0724",
"y  c #FA1327",
"u  c #F81B39",
"i  c #F40628",
"p  c #C5333E",
"a  c #DA333A",
"s  c #E92933",
"d  c #FF2232",
"f  c #FA2D32",
"g  c #F8303B",
"h  c #83433C",
"j  c #8D3F4D",
"k  c #A83E4D",
"l  c #BF354C",
"z  c #B03B4E",
"x  c #B23D51",
"c  c #AB2B42",
"v  c #C83643",
"b  c #D73845",
"n  c #D33B52",
"m  c #EA2642",
"M  c #FF2946",
"N  c #E03943",
"B  c #FF304C",
"V  c #8E484E",
"C  c #994143",
"Z  c #96424C",
"A  c #924F55",
"S  c #8C575D",
"D  c #93525A",
"F  c #BF414C",
"G  c #B4505A",
"H  c #AC5A68",
"J  c #BC5F6B",
"K  c #B95863",
"L  c #9C686C",
"P  c #86736E",
"I  c #866F75",
"U  c #976E72",
"Y  c #8A7471",
"T  c #95797A",
"R  c #A8606C",
"E  c #B26A6E",
"W  c #AD6571",
"Q  c #BF7D7F",
"!  c #B66B72",
"~  c #DE4E58",
"^  c #CF464C",
"/  c #FE5858",
"(  c #CF5D67",
")  c #CA586A",
"_  c #DF5A6B",
"`  c #CC5D70",
"'  c #C84E65",
"]  c #E65569",
"[  c #FA5966",
"{  c #D86D7C",
"}  c #C4747C",
"|  c #D1747E",
" . c #DE6868",
".. c #E66876",
"X. c #EF7177",
"o. c #E8757D",
"O. c #E06A66",
"+. c #7E8173",
"@. c #8E827D",
"#. c #87867A",
"$. c #907F85",
"%. c #B87D86",
"&. c #CB7081",
"*. c #D37583",
"=. c #EB7988",
"-. c #FF7A8B",
";. c #8C8C80",
":. c #B38089",
">. c #AD938C",
",. c #AF8F92",
"<. c #B89797",
"1. c #A59C9D",
"2. c #9CA196",
"3. c #BCA19A",
"4. c #A79CA0",
"5. c #BB95A0",
"6. c #BEBBB4",
"7. c #C78A8D",
"8. c #D68A8A",
"9. c #DB8C87",
"0. c #DC8A95",
"q. c #E88999",
"w. c #F48F93",
"e. c #FF8192",
"r. c #E78889",
"t. c #C8BAB7",
"y. c #CCB8B7",
"u. c #D6BCBE",
"i. c #DBB7BB",
"p. c #D9BFC0",
"a. c #C9C4C6",
"s. c #DEC6C6",
"d. c #D6D1CB",
"f. c #CDD5D5",
"g. c #D9D3D4",
"h. c #D6DCDC",
"j. c #D9DBD8",
"k. c #E5D0CB",
"l. c #E6D3D4",
"z. c #E5D4DD",
"x. c #E7DDDD",
"c. c #E9DDDB",
"v. c #E9D2D6",
"b. c #F0DFD8",
"n. c #E3CBC7",
"m. c #CDE0DC",
"M. c #D8E2D7",
"N. c #D4E2DD",
"B. c #DCE4DE",
"V. c #D9EBDD",
"C. c #D6E8DA",
"Z. c #E5E1DC",
"A. c #E4EBDD",
"S. c #EAEADE",
"D. c #EBE3DA",
"F. c #DBDEE4",
"G. c #E5DCE2",
"H. c #EFDFEB",
"J. c #E0DDEE",
"K. c #CFE3E1",
"L. c #CFEDE3",
"P. c #D5E5E3",
"I. c #DCE5E4",
"U. c #D5EBE4",
"Y. c #DCEAE5",
"T. c #DCE6E9",
"R. c #D5EDEB",
"E. c #DCECEB",
"W. c #D7E0E9",
"Q. c #D6F1E6",
"!. c #DCF6E6",
"~. c #DCF9E4",
"^. c #D4F1E9",
"/. c #DDF4EB",
"(. c #D8F8ED",
"). c #DCECF2",
"_. c #D4EDF1",
"`. c #DCF2F0",
"'. c #E3E5E4",
"]. c #ECE4E4",
"[. c #E3EAE6",
"{. c #EBE9E5",
"}. c #E6E6EB",
"|. c #E8E5EC",
" X c #E3EAEB",
".X c #EBECEB",
"XX c #F4E5E4",
"oX c #F4EAEA",
"OX c #F9E8EB",
"+X c #E2F1ED",
"@X c #ECF2EB",
"#X c #E1F4E3",
"$X c #F2F3EE",
"%X c #E3EBF2",
"&X c #EAEDF2",
"*X c #E9E7F4",
"=X c #FAE8F3",
"-X c #E4F4F3",
";X c #EBF3F4",
":X c #ECFBF3",
">X c #E4F6F9",
",X c #E6FCF5",
"<X c #F1F4F3",
"1X c #FCF6F7",
"2X c #FBFBF4",
"3X c #FEFBFB",
"4X c #F3F9F7",
/* pixels */
"}.}. X X X X[.[.[.M.[.@X[.[.'.'.'.'.{.[.@X[.N. XY.Y. X X}.}.|.|.",
"}.}. X X X X[.[.[.[.[.B.I..X[.[.{..X.X[.I.Y.Y.Y.Y.[. X X}.}.|.|.",
" X X X X}. X[.[.I.+X XN.Y. X[.'.[. X.XI.N.Y.+XN.Y.[. X X}.}.}.}.",
" X X X X}.}.}.[.N.+XY.Y. XI.Y.[.'.I.I. XY.Y.-XN. X X X X}. X}.}.",
"E.E. X X}.}.}. XI. XP. X+XP. X-X.X XN.+X/.P.+XY. X X}.}. X X X X",
"E.E. X X}.}.}. X XE.N.+XE.I.<Xj.F.<XI.E./.m.E.E. X X}.}. X XE.E.",
"E.E. X X}.|.}.}.%XE.P.+XI.'..X1.4..X'.I.+XK.E. X X}.}.}. X XE.E.",
"E.E.E. X|.|.}. XT.E.P.-X'.].v.; - l.].'.-XT.+X X X}.|.}. XE.E.E.",
"Q.E.E. X|.|.}. XI.;Xf.'.3Xu.O %.:.o s.1X'.h.-XI. X}.|.}. XE.E.Q.",
"Q.E.E. X}.|.}. Xf.:X;XoX<.L W H H R L ,.oX3X;Xf.}.}.|.}. XE.E.Q.",
"^.E.E. X}.}.}. X;Xf.Z.u.S Z q.z x =.Z S p.].f.;X X}.|.}. XE.E.^.",
"R.E.E. X}.}.}. XI.$Xt.O } { 3 n n 2 { } O t..XI. X}.|.}. XE.R.^.",
"E.E. X X}.}. X XB.$Xk.X K e.q w w q -.K X n.$X'. X}.|.}. XE.R.^.",
"E.E. X X}.}. X XB.d.3.V ( [ m u u m ] ( A <.d.B. X}.}.}. XE.E.^.",
"E.E.E.}.}.}. XY.:X> & 8.F 0 M i t B 0 F 8.& , <X[. X}.}. XE.E.^.",
"Y. X X X X XE.[.3X< @ r.~ e t u u y r ~ r.@ Y 2X[. X X X X XY.Y.",
"{.Z.[.+XU.U.-Xj.y.L j X.N 9 d y y d 9 b X.C L y.h.>XR.R.-X[.Z.S.",
"D.Z.[./.U.^.+Xg.o ! =.6 0 s f 8 8 g s 0 6 o.E o g.)._.R.+X[.c.b.",
"oX].I.U.L.,X.Xl.# J ..v b a 1 / [ 1 a b p ..J # v.&X>XR.E.[.].XX",
"oX{.Y.Q.^.,Xa.<.j ` ] 5 v ^ 7 O. .7 ^ v 5 _ ` V 5.a.>XR.E.Y.].XX",
"G.'.Y./.(.Y.@.$ q.' l 3 X.w.9.h h 8.w.o.3 l ' q.* $. X`.-XE.'.x.",
"|.}.P.Y.Y.@XP O q.x c =.k @ & >.>.: @ Z =.4 z 0.O I .XE.E.T..X|.",
"&X;XP.P.Y.2XT = 0.*.K &.D U , j.j., U D | G | 0.= $.4XI.P.T.;X&X",
"W.%XE.E.[.2XP + 7.7.%.. i.3X'.;X>XI.3Xi.. Q 7.7.+ P 1XE.E.E.%XF.",
").).E.E.@XZ.@.  % o ; s.G.}.I.%X%XT.|.x.s.; o %   @.G.;XE.E.E.Y.",
").-XE.I..X{.6.#.;.+.2.I.I. X%X%X%X%X}.B.B.2.+.#.#.6..X.XI.E.+XE.",
"T.%X%XI.'..X{.M.#XU./.,XY.%X%XF.J.*X%XY.:X~.V.#XM.[..X'.I. X+XU.",
"I. X%X}.'.'.@X:X/.Q.(.(.K.E.&X*X*X&XE.N.!.~.Q.!.:X+X'.'. X XY.U.",
"'.'. X X XI.I.Y.Y.N.P.P.I.T. X%X*X*XI.I.V.C.N.V.Y.I.I. X X[.I.V.",
".X'.'. X X XT.I.4X&X&X}.;XI.Y.I.T. X'.<X{.@X.X4XI.T.E. X XB.A.A.",
"].{.'.Y.E. X X}.G.G.H.z.oX'. XY.E..X'.oXl.XXc.G.}.%X%XE.Y.I.A.S.",
"].{.[.Y.Y.E.%X|.H.=X=Xz.oX'.+XU.P..X'.XXv.OXOX].|.%X).E.Y.[.S.D."
};
