/* XPM */
static char *Bookcase[] = {
/* columns rows colors chars-per-pixel */
"64 64 43 1 ",
"  c #2C1004",
". c #291E15",
"X c #193E02",
"o c #0B1233",
"O c #261934",
"+ c #0B2836",
"@ c #2D2D2D",
"# c #352626",
"$ c #3A2334",
"% c #402B10",
"& c #42062F",
"* c #705028",
"= c #604438",
"- c #49165D",
"; c #404440",
": c #584848",
"> c #785840",
", c #584070",
"< c #785060",
"1 c #705468",
"2 c #606060",
"3 c #606460",
"4 c #686868",
"5 c #883410",
"6 c #C04418",
"7 c #986840",
"8 c #906850",
"9 c #A87858",
"0 c #408C10",
"q c #68D418",
"w c #B08460",
"e c #682B80",
"r c #304090",
"t c #286480",
"y c #784C90",
"u c #4860C0",
"i c #D01C98",
"p c #3094A8",
"a c #808080",
"s c #909490",
"d c #B09098",
"f c #A084B8",
"g c #A0A0A0",
/* pixels */
"eeeeeeee................................................--------",
"eeeeeeee................................................--------",
"eeeeeeee..>>8888888888888888wwww8888wwww88ww88wwwwwwww..--------",
"eeeeeeee..>>8888888888888888wwww8888wwww88ww88wwwwwwww..--------",
"eeeeeeee..ww88>>>>>>>>>>>>>>>>>>>>>>>>>>>>>>88888888ww..--------",
"eeeeeeee..ww88>>>>>>>>>>>>>>>>>>>>>>>>>>>>>>88888888ww..--------",
"eeeeeeee..>>........................................ww..--------",
"eeeeeeee..>>........................................ww..--------",
"eeeeeeee..>>..556666  ..oorruuoo##++ttpp++XX%%**77..ww..--------",
"eeeeeeee..>>..556666  ..oorruuoo##++ttpp++XX%%**77..ww..--------",
"eeeeeeee..>>..556666  ##oorruuooss++ttpp++00@@22gg..ww..--------",
"eeeeeeee..>>..556666  ##oorruuooss++ttpp++00@@22gg..ww..--------",
"eeeeeeee..>>..33aaaa@@::oorruuoo<<++ttpp++33%%**77..88..--------",
"eeeeeeee..>>..33aaaa@@::oorruuoo<<++ttpp++33%%**77..88..--------",
"eeeeeeee..>>..556666  ::oorruuooss++ttpp++33@@22gg..88..--------",
"eeeeeeee..>>..556666  ::oorruuooss++ttpp++33@@22gg..88..--------",
"eeeeeeee..>>..33aaaa@@;;$$11dd$$<<++ttpp++00%%**77..>>..--------",
"eeeeeeee..>>..33aaaa@@;;$$11dd$$<<++ttpp++00%%**77..>>..--------",
"eeeeeeee..>>..555566  ::$$11dd$$ss++ttpp++00%%**77..>>..--------",
"eeeeeeee..>>..555566  ::$$11dd$$ss++ttpp++00%%**77..>>..--------",
"eeeeeeee..>>..555566  ::oorruuooss++ttpp++00%%**77..ww..--------",
"eeeeeeee..>>..555566  ::oorruuooss++ttpp++00%%**77..ww..--------",
"eeeeeeee..>>........................................ww..--------",
"eeeeeeee..>>........................................ww..--------",
"eeeeeeee..>>8888wwwwww8888wwwwww8888wwww88wwwwww8888ww..--------",
"eeeeeeee..>>8888wwwwww8888wwwwww8888wwww88wwwwww8888ww..--------",
"eeeeeeee..>>........................................ww..--------",
"eeeeeeee..>>........................................ww..--------",
"eeeeeeee..>>..&&%%**77%%OOOOOO++ttpp++XXXX..OOOOOO..ww..--------",
"eeeeeeee..>>..&&%%**77%%OOOOOO++ttpp++XXXX..OOOOOO..ww..--------",
"eeeeeeee..>>..ii@@22gg@@,,yyyy++ttpp++00qqOO,,yyyy..88..--------",
"eeeeeeee..>>..ii@@22gg@@,,yyyy++ttpp++00qqOO,,yyyy..88..--------",
"eeeeeeee..>>..ff%%**77%%;;4444++ttpp++33gg@@;;4444..88..--------",
"eeeeeeee..>>..ff%%**77%%;;4444++ttpp++33gg@@;;4444..88..--------",
"eeeeeeee..>>..ff@@22gg@@;;4444++ttpp++33gg@@;;4444..>>..--------",
"eeeeeeee..>>..ff@@22gg@@;;4444++ttpp++33gg@@;;4444..>>..--------",
"eeeeeeee..>>..ii%%**77%%,,yyyy++ttpp++00qqOO,,yyyy..>>..--------",
"eeeeeeee..>>..ii%%**77%%,,yyyy++ttpp++00qqOO,,yyyy..>>..--------",
"eeeeeeee..>>..ii%%**77%%,,,,yy++ttpp++00qqOO,,,,yy..88..--------",
"eeeeeeee..>>..ii%%**77%%,,,,yy++ttpp++00qqOO,,,,yy..88..--------",
"eeeeeeee..>>..ii%%**77%%,,,,yy++ttpp++00qqOO,,,,yy..88..--------",
"eeeeeeee..>>..ii%%**77%%,,,,yy++ttpp++00qqOO,,,,yy..88..--------",
"eeeeeeee..>>........................................88..--------",
"eeeeeeee..>>........................................88..--------",
"eeeeeeee..>>8888wwwwww8888wwwwww8888wwww88wwwwww888888..--------",
"eeeeeeee..>>8888wwwwww8888wwwwww8888wwww88wwwwww888888..--------",
"eeeeeeee..>>..................>>>>..................88..--------",
"eeeeeeee..>>..................>>>>..................88..--------",
"eeeeeeee..>>..88888888888888>>....88888888888888>>..88..--------",
"eeeeeeee..>>..88888888888888>>....88888888888888>>..88..--------",
"eeeeeeee..>>..88====....====ww....88====....====ww..88..--------",
"eeeeeeee..>>..88====....====ww....88====....====ww..88..--------",
"eeeeeeee..>>..99999999wwwwwwww....99999999wwwwwwww..>>..--------",
"eeeeeeee..>>..99999999wwwwwwww....99999999wwwwwwww..>>..--------",
"eeeeeeee..>>........................................>>..--------",
"eeeeeeee..>>........................................>>..--------",
"eeeeeeee..>>..88888888888888>>....88888888888888>>..>>..--------",
"eeeeeeee..>>..88888888888888>>....88888888888888>>..>>..--------",
"eeeeeeee..>>..88====....====ww....88====....====ww..88..--------",
"eeeeeeee..>>..88====....====ww....88====....====ww..88..--------",
"eeeeeeee..>>..99999999wwwwwwww....99999999wwwwwwww..88..--------",
"eeeeeeee..>>..99999999wwwwwwww....99999999wwwwwwww..88..--------",
"eeeeeeee................................................--------",
"eeeeeeee................................................--------"
};
