/* XPM */
static char *e6477e5e80724e39e623770c2cfbf408Is9LXiz4G8Spac8u[] = {
/* columns rows colors chars-per-pixel */
"64 64 25 1 ",
"  c None",
". c black",
"X c #393939",
"o c #000F6E",
"O c #054E5C",
"+ c #615A5A",
"@ c gray38",
"# c #656565",
"$ c #A70000",
"% c #AB0000",
"& c #F60A0A",
"* c #001AB9",
"= c #1C30A7",
"- c #1D7688",
"; c #54A0B0",
": c #00AFD3",
"> c #33B7D3",
", c #5FCDE4",
"< c #848484",
"1 c gray57",
"2 c gray64",
"3 c #ACB8FF",
"4 c #C1C1C1",
"5 c gray90",
"6 c white",
/* pixels */
"                                                                ",
"                                                                ",
"                                                                ",
"                                                                ",
"                                                                ",
"                                                                ",
"                                                                ",
"                                                                ",
"                                                                ",
"                                                                ",
"                                                                ",
"               3&&&333333&3333&3333333.....3333333              ",
"               &***3&&&33*3333&33&&33&.&...3333333              ",
"               *&&33&**&3&33&&&3&**&6&&*...6333333              ",
"               3**&3&33&3&3&**&3&&&&6&*.....633333              ",
"               333&6&&&*3&3&33&3&***3&......333333              ",
"               &&&*6&**33&3*&&&6*&&33&......333333              ",
"               ***33&3333*33***66**&3*.&....333333              ",
"               33333*##############&&X&&..&&33&&&3              ",
"               533333##############&*&*&..**&3&**&              ",
"               653333##############&X*X&..&&&3&33&              ",
"               353336#-#-#--&&&##-#&XOX&.&**&3&33&              ",
"               ..5.66#-#-#-&&&&.#-#&XOX&.*&&&6&33&              ",
"               ...533#####.&&&.66##*XXX*..***6*63*              ",
"               ...653#####6.&.666###XXX......66663              ",
"               ....53#-##-66..66.--&&&&&.....33333              ",
"               ....35#-##-..&...&-&&ooo&&....33333              ",
"               ....335#####&&&&&$&&oXXXo&&&..33333              ",
"               ..11116511<<$&&&$&&&111@@.&&&######              ",
"               ..11111511<&&$$$&&&*1>1@@..&&#,#,##              ",
"               ..11111151&&&&&&.&&*111@@..#,#,#,##              ",
"               ..1:11:1:5&&<;&&&.&**>1@@..########              ",
"               ..1:11:1:65&<;**&&&&*11@@..#,#,#+##              ",
"               ..111111115&o<<*&&&&*11@@..#,#,#+##              ",
"               ..1:11:1:1<5o;<**&&&**1@@..########              ",
"               ..1:11:1:1<&5o<#*&&***1@@..#,#,####              ",
"               ..111111****&5=********@@..#,#,####              ",
"               ..1:11:*****&5&********@@..########              ",
"               ..1:11:***<**&5*********@..#,#,####              ",
"               ..111111**<<<&&5-#1>1>***..#,#,####              ",
"               ..1:11:1:***<;&&5#11111***.########              ",
"               ..1:11:1:1**&;<&5&1&&11@***#,#,####              ",
"               44444444444&&&&4&5&&&&&&***#,#,####              ",
"               444444444444&&&&22&&1&&&&**########              ",
"               4,,,4,,4,,,4,,&&&222111@@..#,#,####              ",
"               4,,,4,,4,,,4,,,&&2221>1@@..#,#,####              ",
"               4,,,4,,4,,,4,,,&&222111@@..########              ",
"               4,,,4,,4,,,4,,,42222111@@..#,#,####              ",
"               %%%%%%%4444444442222111@@..#,#,####              ",
"               %.....%4444444442222111@@..########              ",
"               %%%%%%%4444444442222111@@..########              ",
"                     ##################                         ",
"                                                                ",
"                                                                ",
"                                                                ",
"                                                                ",
"                                                                ",
"                                                                ",
"                                                                ",
"                                                                ",
"                                                                ",
"                                                                ",
"                                                                ",
"                                                                "
};
