/* XPM */
static char *Comic[] = {
/* columns rows colors chars-per-pixel */
"128 128 26 1 ",
"  c None",
". c black",
"X c #393939",
"o c #000F6E",
"O c #054E5C",
"+ c #615A5A",
"@ c gray38",
"# c #656565",
"$ c #696A6A",
"% c #A70000",
"& c #AB0000",
"* c #F60A0A",
"= c #001AB9",
"- c #1C30A7",
"; c #1D7688",
": c #54A0B0",
"> c #00AFD3",
", c #33B7D3",
"< c #5FCDE4",
"1 c #848484",
"2 c gray57",
"3 c gray64",
"4 c #ACB8FF",
"5 c #C1C1C1",
"6 c gray90",
"7 c white",
/* pixels */
"                                                                                                                                ",
"                                                                                                                                ",
"                                                                                                                                ",
"                                                                                                                                ",
"                                                                                                                                ",
"                                                                                                                                ",
"                                                                                                                                ",
"                                                                                                                                ",
"                                                                                                                                ",
"                                                                                                                                ",
"                                                                                                                                ",
"                                                                                                                                ",
"                                                                                                                                ",
"                                                                                                                                ",
"                                                                                                                                ",
"                                                                                                                                ",
"                                                                                                                                ",
"                                                                                                                                ",
"                                                                                                                                ",
"                                                                                                                                ",
"                                                                                                                                ",
"                                                                                                                                ",
"                                                                                                                                ",
"                                                                                                                                ",
"                                                                                                                                ",
"                                                                                                                                ",
"                                                                                                                                ",
"                                                                                                                                ",
"                                                                                                                                ",
"                                                                                                                                ",
"                                                                                                                                ",
"                                                                                                                                ",
"                                                                                                                                ",
"                                                                                                                                ",
"                                                                                                                                ",
"                                                                                                                                ",
"                                                                                                                                ",
"                                                                                                                                ",
"                                                                                                                                ",
"                                                                                                                                ",
"                                                                                                                                ",
"                                                                                                                                ",
"                                                                                                                                ",
"                                                                                                                                ",
"                                                                                                                                ",
"                                                                                                                                ",
"                                                                                                                                ",
"                                                                                                                                ",
"                                                                                                                                ",
"                                                                                                                                ",
"                                                                                                                                ",
"                                                                                                                                ",
"                                                                                                                                ",
"                                                                                                                                ",
"                                                                                                                                ",
"                                                                                                                                ",
"                                                                                                                                ",
"                                                                                                                                ",
"                                                                                                                                ",
"                                                                                                                                ",
"                                                                                                                                ",
"                                              4***444444*4444*4444444.....4444444                                               ",
"                                              *===4***44=4444*44**44*.*...44444447                                              ",
"                                              =**44*==*4*44***4*==*7**=...744444477                                             ",
"                                              4==*4*44*4*4*==*4****7*=.....74444477                                             ",
"                                              444*7***=4*4*44*4*===4*......44444477                                             ",
"                                              ***=7*==44*4=***7=**44*......44444477                                             ",
"                                              ===44*4444=44===77==*4=.*....44444477                                             ",
"                                              44444=##############**X**..**44***477                                             ",
"                                              644444##############*=*=*..==*4*==*77                                             ",
"                                              764444##############*X=X*..***4*44*77                                             ",
"                                              464447#;#;#;;***##;#*XOX*.*==*4*44*77                                             ",
"                                              ..6.77#;#;#;****.#;#*XOX*.=***7*44*77                                             ",
"                                              ...644#####.***.77##=XXX=..===7=74=77                                             ",
"                                              ...764#####7.*.777###XXX......7777477                                             ",
"                                              ....64#;##;77..77.;;*****.....4444477                                             ",
"                                              ....46#;##;..*...*;**ooo**....4444477                                             ",
"                                              ....446#####*****%**oXXXo***..4444477                                             ",
"                                              ..2222762211%***%***222@@.***######77                                             ",
"                                              ..222226221**%%%***=2,2@@..**#<#<##77                                             ",
"                                              ..22222262******.**=222@@..#<#<#<##77                                             ",
"                                              ..2>22>2>6**1:***.*==,2@@..########77                                             ",
"                                              ..2>22>2>76*1:==****=22@@..#<#<#+##77                                             ",
"                                              ..222222226*o11=****=22@@..#<#<#+##77                                             ",
"                                              ..2>22>2>216o:1==***==2@@..########77                                             ",
"                                              ..2>22>2>21*6o1#=**===2@@..#<#<####77                                             ",
"                                              ..222222====*6-========@@..#<#<####77                                             ",
"                                              ..2>22>=====*6*========@@..########77                                             ",
"                                              ..2>22>===1==*6=========@..#<#<####77                                             ",
"                                              ..222222==111**6;#2,2,===..#<#<####77                                             ",
"                                              ..2>22>2>===1:**6#22222===.########77                                             ",
"                                              ..2>22>2>2==*:1*6*2**22@===#<#<####77                                             ",
"                                              55555555555****5*6******===#<#<####77                                             ",
"                                              555555555555****33**2****==########77                                             ",
"                                              5<<<5<<5<<<5<<***333222@@..#<#<####77                                             ",
"                                              5<<<5<<5<<<5<<<**3332,2@@..#<#<####77                                             ",
"                                              5<<<5<<5<<<5<<<**333222@@..########77                                             ",
"                                              5<<<5<<5<<<5<<<53333222@@..#<#<####77                                             ",
"                                              &&&&&&&5555555553333222@@..#<#<####77                                             ",
"                                              &.....&5555555553333222@@..########77                                             ",
"                                              &&&&&&&5555555553333222@@..########77                                             ",
"                                               $77777777777777777777777777777777777                                             ",
"                                                $$$$$$$$$$$$$$$$$$$$$$$$$$$$$$$$$$                                              ",
"                                                                                                                                ",
"                                                                                                                                ",
"                                                                                                                                ",
"                                                                                                                                ",
"                                                                                                                                ",
"                                                                                                                                ",
"                                                                                                                                ",
"                                                                                                                                ",
"                                                                                                                                ",
"                                                                                                                                ",
"                                                                                                                                ",
"                                                                                                                                ",
"                                                                                                                                ",
"                                                                                                                                ",
"                                                                                                                                ",
"                                                                                                                                ",
"                                                                                                                                ",
"                                                                                                                                ",
"                                                                                                                                ",
"                                                                                                                                ",
"                                                                                                                                ",
"                                                                                                                                ",
"                                                                                                                                ",
"                                                                                                                                ",
"                                                                                                                                "
};
