/* XPM */
static char *Fusuma[] = {
/* columns rows colors chars-per-pixel */
"64 64 5 1 ",
"  c black",
". c #3E2520",
"X c #663931",
"o c gray43",
"O c white",
/* pixels */
".XXXXXXXXXXXXXXXXXXXXXXXXXXXXXXX.XXXXXXXXXXXXXXXXXXXXXXXXXXXXXX.",
".XXXOOOOOOXOOOOOOXOOOOOOXOOOOOOX.XOOOOOOXOOOOOOXOOOOOOXOOOOOOXX.",
".XXXOOOOOOXOOOOOOXOOOOOOXOOOOOOX.XOOOOOOXOOOOOOXOOOOOOXOOOOOOXX.",
".XXXOOOOOOXOOOOOOXOOOOOOXOOOOOOX.XOOOOOOXOOOOOOXOOOOOOXOOOOOOXX.",
".XXXOOOOOOXOOOOOOXOOOOOOXOOOOOOX.XOOOOOOXOOOOOOXOOOOOOXOOOOOOXX.",
".XXXOOOOOOXOOOOOOXOOOOOOXOOOOOOX.XOOOOOOXOOOOOOXOOOOOOXOOOOOOXX.",
".XXXOOOOOOXOOOOOOXOOOOOOXOOOOOOX.XOOOOOOXOOOOOOXOOOOOOXOOOOOOXX.",
".XXXOOOOOOXOOOOOOXOOOOOOXOOOOOOX.XOOOOOOXOOOOOOXOOOOOOXOOOOOOXX.",
".XXXOOOOOOXOOOOOOXOOOOOOXOOOOOOX.XOOOOOOXOOOOOOXOOOOOOXOOOOOOXX.",
".XXXOOOOOOXOOOOOOXOOOOOOXOOOOOOX.XOOOOOOXOOOOOOXOOOOOOXOOOOOOXX.",
".XXXOOOOOOXOOOOOOXOOOOOOXOOOOOOX.XOOOOOOXOOOOOOXOOOOOOXOOOOOOXX.",
".XXXOOOOOOXOOOOOOXOOOOOOXOOOOOOX.XOOOOOOXOOOOOOXOOOOOOXOOOOOOXX.",
".XXXOOOOOOXOOOOOOXOOOOOOXOOOOOOX.XOOOOOOXOOOOOOXOOOOOOXOOOOOOXX.",
".XXXOOOOOOXOOOOOOXOOOOOOXOOOOOOX.XOOOOOOXOOOOOOXOOOOOOXOOOOOOXX.",
".XXXOOOOOOXOOOOOOXOOOOOOXOOOOOOX.XOOOOOOXOOOOOOXOOOOOOXOOOOOOXX.",
".XXXXXXXXXXXXXXXXXXXXXXXXXXXXXXX.XXXXXXXXXXXXXXXXXXXXXXXXXXXXXX.",
".XXXOOOOOOXOOOOOOXOOOOOOXOOOOOOX.XOOOOOOXOOOOOOXOOOOOOXOOOOOOXX.",
".XXXOOOOOOXOOOOOOXOOOOOOXOOOOOOX.XOOOOOOXOOOOOOXOOOOOOXOOOOOOXX.",
".XXXOOOOOOXOOOOOOXOOOOOOXOOOOOOX.XOOOOOOXOOOOOOXOOOOOOXOOOOOOXX.",
".XXXOOOOOOXOOOOOOXOOOOOOXOOOOOOX.XOOOOOOXOOOOOOXOOOOOOXOOOOOOXX.",
".XXXOOOOOOXOOOOOOXOOOOOOXOOOOOOX.XOOOOOOXOOOOOOXOOOOOOXOOOOOOXX.",
".XXXOOOOOOXOOOOOOXOOOOOOXOOOOOOX.XOOOOOOXOOOOOOXOOOOOOXOOOOOOXX.",
".XXXOOOOOOXOOOOOOXOOOOOOXOOOOOOX.XOOOOOOXOOOOOOXOOOOOOXOOOOOOXX.",
".XXXOOOOOOXOOOOOOXOOOOOOXOOOOOOX.XOOOOOOXOOOOOOXOOOOOOXOOOOOOXX.",
".XXXOOOOOOXOOOOOOXOOOOOOXOOOOOOX.XOOOOOOXOOOOOOXOOOOOOXOOOOOOXX.",
".XXXOOOOOOXOOOOOOXOOOOOOXOOOOOOX.XOOOOOOXOOOOOOXOOOOOOXOOOOOOXX.",
".XXXOOOOOOXOOOOOOXOOOOOOXOOOOOOX.XOOOOOOXOOOOOOXOOOOOOXOOOOOOXX.",
".XXXOOOOOOXOOOOOOXOOOOOOXOOOOOOX.XOOOOOOXOOOOOOXOOOOOOXOOOOOOXX.",
".XXXOOOOOOXOOOOOOXOOOOOOXOOOOOOX.XOOOOOOXOOOOOOXOOOOOOXOOOOOOXX.",
".XXXOOOOOOXOOOOOOXOOOOOOXOOOOOOX.XOOOOOOXOOOOOOXOOOOOOXOOOOOOXX.",
".XXXOOOOOOXOOOOOOXOOOOOOXOOOOOOX.XOOOOOOXOOOOOOXOOOOOOXOOOOOOXX.",
".XXXXXXXXXXXXXXXXXXXXXXXXXXXXXXX.XXXXXXXXXXXXXXXXXXXXXXXXXXXXXX.",
".XXXOOOOOOXOOOOOOXOOOOOOXOOOOOOX.XOOOOOOXOOOOOOXOOOOOOXOOOOOOXX.",
".XXXOOOOOOXOOOOOOXOOOOOOXOOOOOOX.XOOOOOOXOOOOOOXOOOOOOXOOOOOOXX.",
".XXXOOOOOOXOOOOOOXOOOOOOXOOOOOOX.XOOOOOOXOOOOOOXOOOOOOXOOOOOOXX.",
".XX  OOOOOXOOOOOOXOOOOOOXOOOOOOX.XOOOOOOXOOOOOOXOOOOOOXOOOOOOXX.",
".X oo OOOOXOOOOOOXOOOOOOXOOOOOOX.XOOOOOOXOOOOOOXOOOOOOXOOOOOOXX.",
".X oo OOOOXOOOOOOXOOOOOOXOOOOOOX.XOOOOOOXOOOOOOXOOOOOOXOOOOOOXX.",
".XX  OOOOOXOOOOOOXOOOOOOXOOOOOOX.XOOOOOOXOOOOOOXOOOOOOXOOOOOOXX.",
".XXXOOOOOOXOOOOOOXOOOOOOXOOOOOOX.XOOOOOOXOOOOOOXOOOOOOXOOOOOOXX.",
".XXXOOOOOOXOOOOOOXOOOOOOXOOOOOOX.XOOOOOOXOOOOOOXOOOOOOXOOOOOOXX.",
".XXXOOOOOOXOOOOOOXOOOOOOXOOOOOOX.XOOOOOOXOOOOOOXOOOOOOXOOOOOOXX.",
".XXXOOOOOOXOOOOOOXOOOOOOXOOOOOOX.XOOOOOOXOOOOOOXOOOOOOXOOOOOOXX.",
".XXXOOOOOOXOOOOOOXOOOOOOXOOOOOOX.XOOOOOOXOOOOOOXOOOOOOXOOOOOOXX.",
".XXXOOOOOOXOOOOOOXOOOOOOXOOOOOOX.XOOOOOOXOOOOOOXOOOOOOXOOOOOOXX.",
".XXXOOOOOOXOOOOOOXOOOOOOXOOOOOOX.XOOOOOOXOOOOOOXOOOOOOXOOOOOOXX.",
".XXXOOOOOOXOOOOOOXOOOOOOXOOOOOOX.XOOOOOOXOOOOOOXOOOOOOXOOOOOOXX.",
".XXXXXXXXXXXXXXXXXXXXXXXXXXXXXXX.XXXXXXXXXXXXXXXXXXXXXXXXXXXXXX.",
".XXXOOOOOOXOOOOOOXOOOOOOXOOOOOOX.XOOOOOOXOOOOOOXOOOOOOXOOOOOOXX.",
".XXXOOOOOOXOOOOOOXOOOOOOXOOOOOOX.XOOOOOOXOOOOOOXOOOOOOXOOOOOOXX.",
".XXXOOOOOOXOOOOOOXOOOOOOXOOOOOOX.XOOOOOOXOOOOOOXOOOOOOXOOOOOOXX.",
".XXXOOOOOOXOOOOOOXOOOOOOXOOOOOOX.XOOOOOOXOOOOOOXOOOOOOXOOOOOOXX.",
".XXXOOOOOOXOOOOOOXOOOOOOXOOOOOOX.XOOOOOOXOOOOOOXOOOOOOXOOOOOOXX.",
".XXXOOOOOOXOOOOOOXOOOOOOXOOOOOOX.XOOOOOOXOOOOOOXOOOOOOXOOOOOOXX.",
".XXXOOOOOOXOOOOOOXOOOOOOXOOOOOOX.XOOOOOOXOOOOOOXOOOOOOXOOOOOOXX.",
".XXXOOOOOOXOOOOOOXOOOOOOXOOOOOOX.XOOOOOOXOOOOOOXOOOOOOXOOOOOOXX.",
".XXXOOOOOOXOOOOOOXOOOOOOXOOOOOOX.XOOOOOOXOOOOOOXOOOOOOXOOOOOOXX.",
".XXXOOOOOOXOOOOOOXOOOOOOXOOOOOOX.XOOOOOOXOOOOOOXOOOOOOXOOOOOOXX.",
".XXXOOOOOOXOOOOOOXOOOOOOXOOOOOOX.XOOOOOOXOOOOOOXOOOOOOXOOOOOOXX.",
".XXXOOOOOOXOOOOOOXOOOOOOXOOOOOOX.XOOOOOOXOOOOOOXOOOOOOXOOOOOOXX.",
".XXXOOOOOOXOOOOOOXOOOOOOXOOOOOOX.XOOOOOOXOOOOOOXOOOOOOXOOOOOOXX.",
".XXXOOOOOOXOOOOOOXOOOOOOXOOOOOOX.XOOOOOOXOOOOOOXOOOOOOXOOOOOOXX.",
".XXXOOOOOOXOOOOOOXOOOOOOXOOOOOOX.XOOOOOOXOOOOOOXOOOOOOXOOOOOOXX.",
".XXXXXXXXXXXXXXXXXXXXXXXXXXXXXXX.XXXXXXXXXXXXXXXXXXXXXXXXXXXXXX."
};
