/* XPM */
static char *fusuma[] = {
/* columns rows colors chars-per-pixel */
"64 64 43 1 ",
"  c #222034",
". c #784636",
"X c #7E4A37",
"o c #4B692F",
"O c #3F3F74",
"+ c #483E64",
"@ c #55686B",
"# c #854F39",
"$ c #8F563B",
"% c #995A59",
"& c #A15F5A",
"* c #A96271",
"= c #AE6672",
"- c #5E8837",
"; c #6C9F3D",
": c #7FBD44",
"> c #654E85",
", c #815992",
"< c #97619C",
"1 c #B46883",
"2 c #B86B84",
"3 c #BF6F91",
"4 c #A768A4",
"5 c #B36CA9",
"6 c #BC70AD",
"7 c #C06F92",
"8 c #C5729B",
"9 c #C6729C",
"0 c #C974A2",
"q c #CD76A9",
"w c #CF77AD",
"e c #D077AF",
"r c #C273B0",
"t c #C875B3",
"y c #CB76B4",
"u c #CE77B6",
"i c #D178B0",
"p c #D178B7",
"a c #D57AB7",
"s c #D279B8",
"d c #D479B8",
"f c #F5DEEE",
"g c white",
/* pixels */
"                                                                ",
" OO,4>,,4,>><,,O4<><,,4,><<44,O  ,<<O4,>,,,<54>,<><OO,>O,O>>gfg ",
" ,O<OO<,,><>,><>>r,5556564<<5,r  4O<>O<O<O<,<,<>,O><>,O>OOOOgfg ",
" >,,5<O>>5445<Or><,5<pu65r<yr,<  5,64,,<>><5,O,4<,>,,,>4,>OOggg ",
" 5O<>,4,,456<26544t6ttu45,t<<46  4,,<6r,6<>4>4556<,<,><,O,<>ggg ",
" ><55,,5,,r6<3t<r>5556y454<,<5,  4<55,4>6r4r645t5<<6,<>>,>O,Ogg ",
" <4<r55<><<5<2,46<<56tu4<>r56t4  4<44>5OOr656<rty<y4t6<55O,>O,> ",
" >6<,4,<,4O44&4<64<65uurr&05445  5,4,<r<rr654r4u66d64yr5<<O4O>, ",
" 4,,5<<,O>g,0,<65tutdy4464t=2>4  ur4y<r66546<5tuty54tsp8,<<><OO ",
" >><4>4>,<,<$O65ysp6r5p445p69&&  4<5,5<,r5555p35uy4ry6r34>4O>>O ",
" ><<4<,>O,4,2><try65<tpr656r65=  5,4,5t555yr5t35r5tu<5426>,>O>> ",
" ,4,O>,>,4<,8><6rt65r45y6yrr5,r  32$765tt546<00r4yr6rp<3,,<O<,O ",
" O<<45<<><468<5,<44rr56yy5t6d45  tr62&iwy<urt&66urtuuy69=,,<,,, ",
" ,O<<<4,r654=>4rt6rrp6puus6t6<r  44>uq2w7sy4d02r5tt>,5503<5,4O6 ",
" ,6O4,<544<,6&<urrtddydyur656py  p5tydiaiairseistt<rsu528<<<6O> ",
" >5<<O,r646r4t30r46sdtu6rtuduyt  ttt4tyddptddaasy5y,4u<=&4,O>,O ",
" ,4,t<<6t5666rrr2sdpdstrstds66r  5t6p4,ryiqtyiaryrpuy5t7&5>O<,> ",
" 5&t5<<5645rr5pyt33ddiiaipsu4p6  trrutuuyq0rtw0wsupr46r=24,O,<, ",
" ,=44r6r456s4tuutdd823=tdadaauu  4ry4u6dua0y4daawyu<r,>2=4,><5> ",
" <<26y646rtppsssy2=2qqq3&&&t70i  spurusda0=uriidi3ydr6t03<64>>, ",
" 442&rytus=33$828tp6t5<<t<w=0=t  iaidsp4adepuia0qiiuttrw8,5O,>O ",
" <rt4e8w2edu22y6yty665r66<64,98  &udawa0idwsddwdad8duui92<>45<O ",
" ysy5suddy0qr<5ty454<d55<<>t,4,  0=0&draiiaaddadii07tri345,44,, ",
" tutttsr=&u6y46ttr<<5<44<5<r<55  rta0iia7qawipqai9q&wi62y5<,4,, ",
" ruprsr3r<644rt,<>,,<>>,4r<<5<,  purr<u83qwi7iy92093220rr4<6<<, ",
" ut5ry0uu6t5646<<t,<>><,,O>446>  6u6u5<5r$9792r=$q=2$&6<45O,>>, ",
" t56sy&r54ur6<tr,5>O<4>4>,,O><6  O6rr6<<55&==2=22&7=24<54>,,O<< ",
" t<ru&y65utr5O4,>,>O>OOO,O4<>4t  <r<4,4O4<32=9q&7$&<=,>6,,O<O5O ",
" 56ur=4<6rtr,64>>OO>,OOOOOOOOO>  ><,<>>,455&*2===&5&24<,OO<>>>O ",
" 56us,&5r<5,<O,,OOOOOOOOOOO>>O5  O,<<,6,,<>&31&&==2$&2>4OO,>4O> ",
" y5d5r254,,>><>O>OOOgOOOO>OO>O,  >,OOO><><<=$&2&#$992&O>,>,>OOO ",
" 54r44&4,r,,,>OOOOOOOOOO>O>>>>>  O,,>,>O>>,>&&$$%=$&&=>OOO>O>O> ",
" 4r<,><$<>O>>OOOOOOOOOOOO>O>OOO  >O>>>,>>>OO$&#&$&$$$&OO>O,>>OO ",
" 45,,5O$<>,O>OOOOOOOOOOOOOOOOO,  >>,>>O>OOOO+#$#$X&=$$>OOOO>O,O ",
" ,>>>>O>$O>OOOOOOOOOOOOOOOOOOOO  O>OOOOOOgOOO$$$###$$$OOOOOOOOO ",
" >OOOOO,$>,>OOOOOOOOOOOOOOOOOOO  OOOOOOOOOOOOX#$$$$$$#OOO>OOO>> ",
" OO>OO>,>>OOOOOOOOOOOOOOOOOOOOO  OOOOOOOOOOOOO$X$#$$$XOOOOOOOOO ",
" ,O>OOOOOOOOOOOOOOOOOOOOOOOOOOO  OOOOOOOOOOOOO$X$$$#$OOOOOOOOOO ",
" >O   OOOOOOOOOOOOOOOOOOOOOOOOO  OOOOOOOOOOOOO#$#$#$$OOOOOOOOOO ",
" O >OO >OOOOOOOOOOOOOOOOOOOOOOO  OOOOOOOOOOOOO$##.$XXOOOOOOOOOO ",
" O >>O OOOOOOOOOOOOOOOOOOOOOOOO  OOOOOOOOOOOOO#X$##.$OOOOOOOOOO ",
" O OOO OOOOOOOOOOgOOOOOOOOOOOOO  OOOOOOOOOOOOO$#$#$.#OOOOOOOOOO ",
" OO   OOOOOOOOOOOOOOOOOOOOOOOOO  OOOOOOgOOOOOO$###$$.OOOOOOgOOO ",
" OOOOOOOOOOOOOOOOOOOOOOOOOOOOOO  OOOOOOOOOOOOO$X$##$XOOOOOOOOOO ",
" OOOOOOOOOOOOOOOOOOOOOOOOOOOOOO  OOOOOOOOOOOOO#$##$##OOOOOOOOOO ",
" OOOOOOOOOOOOOOOOOOOOOOOOOOOOOO  OOOOOOOOOOOOOX$$$X$$OOOOOOOOOO ",
" OOOOOOOOOOOOOOOOOOOOOOOOOOOOOO  OOOOOOOOOOOOO#.$$XX#OOOOOOOOOO ",
" OgOOOOOOOOOOOOOOOOOOOOOOOOOOOO  OOOOOOOOOOOO#$$$#$$.OOOOOOOOOO ",
" OOOOOOOOOOOOOOOOOOOOOOOOOOOOOO  OOOOOOOOOOOOX#$$$X.$OOOOOOOOOO ",
" OOOOOOOOOOOOOOOOOOOOOOOOOOOOOO  OOOOOOOOOOO#$$$$$$.$OOOOOOOOOO ",
" OOOOOOOOOOOOOOOOOOOOOOOOOOOOOO  OOOOOOOOOO$$$X###$X$#OOOOOOOOO ",
" OOOOOOOOOOOOOOOOOOOOOOOOOOOOOO  OOOOOOOOO$#.$#$$$$##$OOOOOOOOO ",
" OOOOOOOOOOOOOOOOOOOOOOOOOOOOOO  OOOOOOOO$####X$X##.$$$$OOOOOOO ",
" OOOOOOOOOOOOOOOOOOOOOOOOOOOOOO  OOOOOO@$$X$#.oooooooooo$OOOOOO ",
" OOOOOOOOOOOOOOOOOOOOOOOOOOOOOO  OOOOoo$ooooooooooooooooooOOOOO ",
" OOOOOOOOOOOOOOOOOOOOOOOOOOOOoo  oooooooooooooooooooooooooooOOO ",
" OOOOOOOOOOOOOOOOOOOOOooooooooo  oooooo-ooooooooooooooooooooooo ",
" OOOOOOOOOOOOOOooo-oooooooooooo  ooooooooooooo-oooooooooooooooo ",
" OOOOOOOOoooooooo-oooo-oooooooo  oooooooooooooooooooooooooooooo ",
" OOooooooooo;oooo-oooo-oooo-;oo  ooo-ooooo-ooooo-oooooooooooooo ",
" oooo-ooo--o--o-ooooooooo-oooo-  ooooo-oooooo-oooooooo;oooooooo ",
" oooooooooooo-ooo-o-ooooooooo;o  o-o-ooooooooo-oo-oooo-ooooo-oo ",
" ooooooo--o-oo--o:--o-o-ooooooo  oooooooo-ooooooooooooooo-ooooo ",
"                                                                "
};
