/* XPM */
static char * six_xpm[] = {
"42 101 2 1",
" 	c #061740",
".	c #195DFD",
"        ..........................        ",
"        ..........................        ",
"        ..........................        ",
"        ..........................        ",
"        ..........................        ",
"        ..........................        ",
"        ..........................        ",
"        ..........................        ",
"........        ..........                ",
"........        ..........                ",
"........        ..........                ",
"........        ..........                ",
"........        ..........                ",
"........        ..........                ",
"........        ..........                ",
"........        ..........                ",
"................                          ",
"................                          ",
"................                          ",
"................                          ",
"................                          ",
"................                          ",
"................                          ",
"................                          ",
"................                          ",
"................                          ",
"................                          ",
"................                          ",
"................                          ",
"................                          ",
"................                          ",
"................                          ",
"................                          ",
"................                          ",
"................                          ",
"................                          ",
"................                          ",
"................                          ",
"........        ..........                ",
"........        ..........                ",
"........        ..........                ",
"........        ..........                ",
"........        ..........                ",
"........        ..........                ",
"........        ..........                ",
"........        ..........                ",
"        ..........................        ",
"        ..........................        ",
"        ..........................        ",
"        ..........................        ",
"        ..........................        ",
"        ..........................        ",
"        ..........................        ",
"        ..........................        ",
"........                          ........",
"........                          ........",
"........                          ........",
"........                          ........",
"........                          ........",
"........                          ........",
"........                          ........",
"........                          ........",
"........                          ........",
"................          ................",
"................          ................",
"................          ................",
"................          ................",
"................          ................",
"................          ................",
"................          ................",
"................          ................",
"................          ................",
"................          ................",
"................          ................",
"................          ................",
"................          ................",
"................          ................",
"................          ................",
"................          ................",
"................          ................",
"................          ................",
"................          ................",
"................          ................",
"................          ................",
"................          ................",
"........        ..........        ........",
"........        ..........        ........",
"........        ..........        ........",
"........        ..........        ........",
"........        ..........        ........",
"........        ..........        ........",
"........        ..........        ........",
"........        ..........        ........",
"        ..........................        ",
"        ..........................        ",
"        ..........................        ",
"        ..........................        ",
"        ..........................        ",
"        ..........................        ",
"        ..........................        ",
"        ..........................        "};
