/* XPM */
static char * three_xpm[] = {
"42 101 3 1",
" 	c #061740",
".	c #195DFD",
"+	c #185BF9",
"        ..........................        ",
"        ..........................        ",
"        ..........................        ",
"        ..........................        ",
"        ..........................        ",
"        ..........................        ",
"        ..........................        ",
"        ..........................        ",
"                ..........        ........",
"                ..........        ........",
"                ..........        ........",
"                ..........        ........",
"                ..........        ........",
"                ..........        ........",
"                ..........        ........",
"                ..........        ........",
"                          ................",
"                          ................",
"                          ................",
"                          ................",
"                          ................",
"                          ................",
"                          ................",
"                          ................",
"                          ................",
"                          ................",
"                          ................",
"                          ................",
"                          ................",
"                          ................",
"                          ................",
"                          ................",
"                          ................",
"                          ................",
"                          ................",
"                          ................",
"                          ................",
"                          +...............",
"                ..........        ........",
"                ..........        ........",
"                ..........        ........",
"                ..........        ........",
"                ..........        ........",
"                ..........        ........",
"                ..........        ........",
"                ..........        ........",
"        ..........................        ",
"        ..........................        ",
"        ..........................        ",
"        ..........................        ",
"        ..........................        ",
"        ..........................        ",
"        ..........................        ",
"        ..........................        ",
"                                  ........",
"                                  ........",
"                                  ........",
"                                  ........",
"                                  ........",
"                                  ........",
"                                  ........",
"                                  ........",
"                                  ........",
"                          ................",
"                          ................",
"                          ................",
"                          ................",
"                          ................",
"                          ................",
"                          ................",
"                          ................",
"                          ................",
"                          ................",
"                          ................",
"                          ................",
"                          ................",
"                          ................",
"                          ................",
"                          ................",
"                          ................",
"                          ................",
"                          ................",
"                          ................",
"                          ................",
"                          ................",
"                ..........        ........",
"                ..........        ........",
"                ..........        ........",
"                ..........        ........",
"                ..........        ........",
"                ..........        ........",
"                ..........        ........",
"                ..........        ........",
"        ..........................        ",
"        ..........................        ",
"        ..........................        ",
"        ..........................        ",
"        ..........................        ",
"        ..........................        ",
"        ..........................        ",
"        ..........................        "};
